<svg xmlns="http://www.w3.org/2000/svg" xmlns:xlink="http://www.w3.org/1999/xlink" width="1080" zoomAndPan="magnify" viewBox="0 0 810 817.92" height="1080" preserveAspectRatio="xMidYMid meet" version="1.0"><defs><clipPath id="8aba492c8c"><path d="M 528 58.546875 L 690 58.546875 L 690 331 L 528 331 Z M 528 58.546875 " clip-rule="nonzero"/></clipPath><clipPath id="00f1c7e704"><path d="M 120 58.546875 L 282 58.546875 L 282 331 L 120 331 Z M 120 58.546875 " clip-rule="nonzero"/></clipPath><clipPath id="5109e49115"><path d="M 466 627 L 542 627 L 542 751.476562 L 466 751.476562 Z M 466 627 " clip-rule="nonzero"/></clipPath><clipPath id="e496204457"><path d="M 268 627 L 344 627 L 344 751.476562 L 268 751.476562 Z M 268 627 " clip-rule="nonzero"/></clipPath><clipPath id="21d3ba7c22"><path d="M 602 244 L 789 244 L 789 751.476562 L 602 751.476562 Z M 602 244 " clip-rule="nonzero"/></clipPath><clipPath id="b16d47aa31"><path d="M 21.160156 244 L 208 244 L 208 751.476562 L 21.160156 751.476562 Z M 21.160156 244 " clip-rule="nonzero"/></clipPath></defs><path fill="#2f2e2c" d="M 281.28125 305.984375 C 232.035156 305.984375 207.050781 339.28125 207.050781 404.957031 C 207.050781 511.519531 372.089844 607.839844 405 625.960938 C 437.910156 607.839844 602.949219 511.519531 602.949219 404.957031 C 602.949219 339.28125 577.964844 305.984375 528.71875 305.984375 C 460.816406 305.984375 416.261719 385.386719 415.824219 386.160156 C 411.476562 394.085938 398.523438 394.085938 394.175781 386.160156 C 393.738281 385.386719 349.179688 305.984375 281.28125 305.984375 Z M 405 652.394531 C 403.066406 652.394531 401.132812 651.914062 399.34375 651.042969 C 390.5 646.453125 182.304688 537.8125 182.304688 404.957031 C 182.304688 325.167969 217.441406 281.238281 281.28125 281.238281 C 342.65625 281.238281 385.957031 330.4375 405 357.308594 C 424.039062 330.4375 467.34375 281.238281 528.71875 281.238281 C 592.558594 281.238281 627.695312 325.167969 627.695312 404.957031 C 627.695312 537.8125 419.496094 646.453125 410.652344 651.042969 C 408.867188 651.914062 406.933594 652.394531 405 652.394531 " fill-opacity="1" fill-rule="nonzero"/><path fill="#2f2e2c" d="M 430.757812 305.984375 C 425.394531 305.984375 420.417969 302.457031 418.820312 297.042969 C 416.453125 288.730469 412.492188 280.078125 408.335938 270.898438 C 400.601562 253.835938 392.628906 236.246094 392.628906 217.300781 C 392.628906 188.5 407.175781 169.890625 429.742188 169.890625 C 444.871094 169.890625 455.597656 185.261719 462.316406 196.8125 C 465.746094 202.707031 463.765625 210.292969 457.871094 213.726562 C 451.972656 217.15625 444.386719 215.175781 440.957031 209.28125 C 433.320312 196.183594 429.066406 194.539062 429.019531 194.539062 C 418.964844 194.636719 417.371094 208.84375 417.371094 217.300781 C 417.371094 230.882812 423.945312 245.332031 430.902344 260.652344 C 435.253906 270.269531 439.699219 280.175781 442.597656 290.179688 C 444.53125 296.753906 440.761719 303.566406 434.191406 305.5 C 433.03125 305.839844 431.871094 305.984375 430.757812 305.984375 " fill-opacity="1" fill-rule="nonzero"/><path fill="#2f2e2c" d="M 379.289062 305.984375 C 378.128906 305.984375 376.96875 305.839844 375.808594 305.5 C 369.238281 303.566406 365.46875 296.753906 367.402344 290.179688 C 370.300781 280.175781 374.792969 270.269531 379.097656 260.652344 C 386.054688 245.332031 392.628906 230.882812 392.628906 217.300781 C 392.628906 208.84375 391.03125 194.683594 380.304688 194.636719 C 380.59375 194.734375 376.339844 196.761719 369.042969 209.28125 C 365.613281 215.175781 358.023438 217.15625 352.128906 213.726562 C 346.234375 210.292969 344.25 202.707031 347.683594 196.8125 C 354.402344 185.261719 365.128906 169.890625 380.253906 169.890625 C 402.824219 169.890625 417.371094 188.5 417.371094 217.300781 C 417.371094 236.246094 409.398438 253.835938 401.664062 270.898438 C 397.507812 280.078125 393.546875 288.730469 391.128906 297.042969 C 389.582031 302.457031 384.652344 305.984375 379.289062 305.984375 " fill-opacity="1" fill-rule="nonzero"/><path fill="#2f2e2c" d="M 478.214844 276.066406 C 472.609375 276.066406 467.488281 272.203125 466.183594 266.449219 C 462.992188 252.675781 454.246094 235.132812 445.59375 218.363281 C 444 215.128906 442.40625 212.035156 440.761719 208.941406 C 426.601562 181.683594 417.371094 162.835938 417.371094 148.242188 C 417.371094 116.78125 432.304688 95.660156 454.488281 95.660156 C 463.476562 95.660156 472.804688 102.378906 487.976562 115.570312 C 493.101562 120.066406 493.730469 127.992188 489.234375 133.113281 C 484.742188 138.285156 477.054688 138.867188 471.886719 134.371094 L 471.691406 134.226562 C 468.210938 131.183594 457.964844 122.289062 453.664062 120.453125 C 445.304688 121.417969 442.117188 137.800781 442.117188 148.242188 C 442.117188 157.90625 453.957031 180.71875 462.605469 197.34375 C 464.296875 200.53125 465.988281 203.816406 467.679688 207.152344 C 476.960938 225.179688 486.480469 244.316406 490.296875 260.894531 C 491.84375 267.5625 487.6875 274.183594 481.019531 275.730469 C 480.101562 275.921875 479.132812 276.066406 478.214844 276.066406 " fill-opacity="1" fill-rule="nonzero"/><path fill="#2f2e2c" d="M 329.996094 125.09375 L 330.140625 125.09375 Z M 331.78125 276.066406 C 330.863281 276.066406 329.898438 275.921875 328.980469 275.730469 C 322.3125 274.183594 318.15625 267.5625 319.699219 260.894531 C 323.519531 244.316406 333.039062 225.179688 342.414062 207.007812 C 344.011719 203.816406 345.652344 200.53125 347.488281 197.199219 C 356.042969 180.71875 367.882812 157.90625 367.882812 148.242188 C 367.882812 137.800781 364.742188 121.417969 356.332031 120.453125 C 352.03125 122.289062 341.785156 131.183594 338.308594 134.226562 L 322.019531 115.570312 C 337.195312 102.378906 346.523438 95.660156 355.511719 95.660156 C 377.695312 95.660156 392.628906 116.78125 392.628906 148.242188 C 392.628906 162.835938 383.398438 181.683594 369.332031 208.746094 C 367.59375 212.035156 366 215.128906 364.453125 218.21875 C 355.753906 235.132812 347.007812 252.675781 343.816406 266.449219 C 342.511719 272.203125 337.390625 276.066406 331.78125 276.066406 " fill-opacity="1" fill-rule="nonzero"/><g clip-path="url(#8aba492c8c)"><path fill="#2f2e2c" d="M 640.066406 330.726562 C 634.847656 330.726562 629.964844 327.390625 628.273438 322.171875 C 611.359375 269.6875 583.378906 224.453125 560.855469 188.113281 C 541.527344 156.796875 528.71875 136.109375 528.71875 120.40625 C 528.71875 71.59375 552.0625 58.546875 565.835938 58.546875 C 597.925781 58.546875 653.066406 151.769531 688.636719 239.484375 C 691.246094 245.816406 688.152344 253.015625 681.820312 255.578125 C 675.488281 258.136719 668.289062 255.09375 665.726562 248.761719 C 620.832031 138.09375 576.128906 86.1875 565.011719 83.191406 C 563.371094 83.628906 553.460938 90.875 553.460938 120.40625 C 553.460938 129.105469 567.914062 152.496094 581.925781 175.0625 C 603.917969 210.585938 634.023438 259.25 651.859375 314.539062 C 653.9375 321.0625 650.359375 328.019531 643.835938 330.148438 C 642.628906 330.535156 641.324219 330.726562 640.066406 330.726562 " fill-opacity="1" fill-rule="nonzero"/></g><g clip-path="url(#00f1c7e704)"><path fill="#2f2e2c" d="M 169.933594 330.726562 C 168.675781 330.726562 167.371094 330.535156 166.117188 330.148438 C 159.640625 328.019531 156.0625 321.0625 158.140625 314.539062 C 176.023438 259.25 206.082031 210.585938 228.070312 175.0625 C 242.085938 152.496094 256.535156 129.105469 256.535156 120.40625 C 256.535156 90.875 246.628906 83.628906 243.972656 83.289062 C 233.871094 86.1875 189.167969 138.09375 144.269531 248.761719 C 141.710938 255.09375 134.507812 258.136719 128.179688 255.578125 C 121.847656 253.015625 118.800781 245.816406 121.363281 239.484375 C 156.933594 151.769531 212.074219 58.546875 244.164062 58.546875 C 257.9375 58.546875 281.28125 71.59375 281.28125 120.40625 C 281.28125 136.109375 268.472656 156.796875 249.09375 188.113281 C 226.621094 224.453125 198.640625 269.6875 181.726562 322.171875 C 180.035156 327.390625 175.152344 330.726562 169.933594 330.726562 " fill-opacity="1" fill-rule="nonzero"/></g><g clip-path="url(#5109e49115)"><path fill="#2f2e2c" d="M 528.71875 751.371094 C 521.90625 751.371094 516.347656 745.8125 516.347656 739 C 516.347656 730.398438 503.734375 709.375 493.632812 692.507812 C 484.207031 676.753906 474.398438 660.46875 467.824219 644.808594 C 465.167969 638.527344 468.117188 631.277344 474.398438 628.621094 C 480.730469 625.960938 487.976562 628.910156 490.636719 635.238281 C 496.53125 649.207031 505.859375 664.769531 514.847656 679.796875 C 528.960938 703.285156 541.089844 723.535156 541.089844 739 C 541.089844 745.8125 535.53125 751.371094 528.71875 751.371094 " fill-opacity="1" fill-rule="nonzero"/></g><g clip-path="url(#e496204457)"><path fill="#2f2e2c" d="M 281.28125 751.371094 C 274.464844 751.371094 268.910156 745.8125 268.910156 739 C 268.910156 723.535156 281.039062 703.285156 295.152344 679.796875 C 304.140625 664.769531 313.46875 649.207031 319.363281 635.238281 C 322.019531 628.910156 329.269531 625.960938 335.550781 628.621094 C 341.882812 631.277344 344.832031 638.527344 342.171875 644.808594 C 335.601562 660.46875 325.789062 676.753906 316.367188 692.507812 C 306.265625 709.375 293.652344 730.398438 293.652344 739 C 293.652344 745.8125 288.09375 751.371094 281.28125 751.371094 " fill-opacity="1" fill-rule="nonzero"/></g><g clip-path="url(#21d3ba7c22)"><path fill="#2f2e2c" d="M 739.039062 751.371094 C 733.433594 751.371094 728.359375 747.554688 727.007812 741.898438 C 726.476562 739.726562 714.296875 688.640625 714.296875 664.769531 C 714.296875 654.957031 719.660156 641.039062 727.78125 619.96875 C 742.132812 582.757812 763.785156 526.597656 763.785156 466.816406 C 763.785156 442.945312 757.503906 420.953125 752.476562 403.316406 C 748.609375 389.734375 745.226562 377.992188 745.226562 367.84375 L 745.273438 362.476562 C 745.613281 293.371094 740.007812 274.230469 736.671875 268.964844 C 714.105469 270.945312 701.925781 301.730469 701.925781 330.726562 C 701.925781 343.097656 700.910156 442.21875 700.910156 442.21875 C 700.863281 444.683594 700.089844 447.101562 698.6875 449.179688 C 678.921875 477.5 627.695312 558.253906 627.695312 590.535156 C 627.695312 597.351562 622.136719 602.910156 615.320312 602.910156 C 608.507812 602.910156 602.949219 597.351562 602.949219 590.535156 C 602.949219 547.621094 662.296875 458.503906 676.167969 438.160156 C 676.359375 419.941406 677.179688 341.648438 677.179688 330.726562 C 677.179688 287.714844 698.445312 244.125 739.039062 244.125 C 742.761719 244.125 748.222656 245.1875 753.296875 250.308594 C 765.523438 262.585938 770.355469 295.15625 770.019531 362.625 L 769.972656 367.84375 C 769.972656 374.511719 772.871094 384.710938 776.253906 396.5 C 781.714844 415.640625 788.527344 439.464844 788.527344 466.816406 C 788.527344 531.238281 765.863281 590.003906 750.882812 628.859375 C 745.035156 643.9375 739.039062 659.550781 739.039062 664.769531 C 739.039062 682.167969 747.738281 722.183594 751.074219 736.101562 C 752.667969 742.769531 748.5625 749.4375 741.941406 751.035156 C 740.972656 751.273438 740.007812 751.371094 739.039062 751.371094 " fill-opacity="1" fill-rule="nonzero"/></g><g clip-path="url(#b16d47aa31)"><path fill="#2f2e2c" d="M 70.957031 751.371094 C 69.992188 751.371094 69.023438 751.273438 68.058594 751.035156 C 61.4375 749.4375 57.328125 742.769531 58.925781 736.101562 C 62.257812 722.183594 70.957031 682.167969 70.957031 664.769531 C 70.957031 659.550781 64.917969 643.9375 59.117188 628.859375 C 44.136719 590.003906 21.46875 531.238281 21.46875 466.816406 C 21.46875 439.464844 28.285156 415.640625 33.746094 396.5 C 37.128906 384.710938 40.027344 374.511719 40.027344 367.84375 L 40.027344 362.625 C 39.640625 295.15625 44.472656 262.585938 56.703125 250.308594 C 61.777344 245.1875 67.238281 244.125 70.957031 244.125 C 111.554688 244.125 132.816406 287.714844 132.816406 330.726562 C 132.816406 341.648438 133.589844 419.941406 133.785156 438.160156 C 147.703125 458.503906 207.050781 547.621094 207.050781 590.535156 C 207.050781 597.351562 201.492188 602.910156 194.675781 602.910156 C 187.863281 602.910156 182.304688 597.351562 182.304688 590.535156 C 182.304688 558.207031 131.078125 477.5 111.3125 449.179688 C 109.910156 447.101562 109.136719 444.683594 109.089844 442.21875 C 109.089844 442.21875 108.074219 343.097656 108.074219 330.726562 C 108.074219 301.730469 95.894531 270.945312 73.328125 268.964844 C 70.039062 274.230469 64.386719 293.371094 64.773438 362.476562 L 64.773438 367.84375 C 64.773438 377.992188 61.4375 389.734375 57.523438 403.316406 C 52.496094 420.953125 46.214844 442.945312 46.214844 466.816406 C 46.214844 526.597656 67.863281 582.757812 82.21875 619.96875 C 90.335938 641.039062 95.703125 654.957031 95.703125 664.769531 C 95.703125 688.640625 83.523438 739.726562 82.992188 741.898438 C 81.636719 747.554688 76.5625 751.371094 70.957031 751.371094 " fill-opacity="1" fill-rule="nonzero"/></g><path fill="#2f2e2c" d="M 541.285156 268.867188 C 536.257812 268.867188 531.523438 265.824219 529.683594 260.84375 C 521.179688 238.179688 507.359375 211.597656 495.179688 188.207031 C 477.105469 153.414062 466.859375 133.113281 466.859375 120.40625 C 466.859375 91.746094 482.46875 70.917969 503.976562 70.917969 C 528.285156 70.917969 548.097656 101.507812 551.820312 107.644531 C 555.394531 113.492188 553.511719 121.082031 547.710938 124.65625 C 541.863281 128.234375 534.277344 126.347656 530.699219 120.550781 C 523.5 108.757812 510.742188 95.660156 503.976562 95.660156 C 496.242188 95.660156 491.601562 108.226562 491.601562 120.40625 C 491.601562 127.703125 505.761719 154.910156 517.167969 176.753906 C 529.636719 200.820312 543.84375 228.078125 552.835938 252.144531 C 555.25 258.574219 552.011719 265.679688 545.585938 268.09375 C 544.136719 268.625 542.734375 268.867188 541.285156 268.867188 " fill-opacity="1" fill-rule="nonzero"/><path fill="#2f2e2c" d="M 268.714844 268.867188 C 267.3125 268.867188 265.816406 268.625 264.414062 268.09375 C 257.988281 265.679688 254.75 258.574219 257.164062 252.144531 C 266.152344 228.078125 280.363281 200.820312 292.878906 176.753906 C 304.234375 154.910156 318.394531 127.703125 318.394531 120.40625 C 318.394531 108.226562 313.757812 95.660156 306.023438 95.660156 C 298.582031 95.660156 285.484375 110.351562 279.300781 120.550781 C 275.769531 126.347656 268.183594 128.234375 262.335938 124.65625 C 256.488281 121.128906 254.605469 113.492188 258.179688 107.644531 C 261.902344 101.507812 281.714844 70.917969 306.023438 70.917969 C 327.53125 70.917969 343.140625 91.746094 343.140625 120.40625 C 343.140625 133.113281 332.894531 153.414062 314.820312 188.207031 C 302.640625 211.597656 288.820312 238.179688 280.3125 260.84375 C 278.476562 265.824219 273.742188 268.867188 268.714844 268.867188 " fill-opacity="1" fill-rule="nonzero"/></svg>