<svg xmlns="http://www.w3.org/2000/svg" xmlns:xlink="http://www.w3.org/1999/xlink" width="1080" zoomAndPan="magnify" viewBox="0 0 810 817.92" height="1080" preserveAspectRatio="xMidYMid meet" version="1.0"><defs><clipPath id="fcbcc2c83e"><path d="M 28.351562 10 L 747 10 L 747 799 L 28.351562 799 Z M 28.351562 10 " clip-rule="nonzero"/></clipPath></defs><g clip-path="url(#fcbcc2c83e)"><path fill="#2f2e2c" d="M 743.75 278.1875 C 705.546875 43.207031 481.101562 -28.257812 301.472656 29.09375 C 101.457031 94.960938 114.113281 294.125 118.667969 333.386719 C 118.871094 335.386719 118.703125 337.359375 118.164062 339.300781 C 117.621094 341.238281 116.746094 343.015625 115.539062 344.625 L 31.035156 457.433594 C 30.757812 457.816406 30.496094 458.214844 30.261719 458.625 C 30.023438 459.035156 29.8125 459.460938 29.621094 459.894531 C 29.429688 460.328125 29.265625 460.773438 29.121094 461.226562 C 28.980469 461.675781 28.863281 462.136719 28.773438 462.601562 C 28.679688 463.066406 28.617188 463.535156 28.574219 464.011719 C 28.535156 464.484375 28.523438 464.957031 28.535156 465.429688 C 28.546875 465.90625 28.585938 466.375 28.648438 466.847656 C 28.710938 467.316406 28.800781 467.78125 28.917969 468.242188 C 29.03125 468.703125 29.171875 469.15625 29.335938 469.601562 C 29.503906 470.046875 29.691406 470.480469 29.902344 470.902344 C 30.117188 471.328125 30.351562 471.738281 30.609375 472.136719 C 30.867188 472.535156 31.144531 472.917969 31.445312 473.289062 C 31.742188 473.65625 32.0625 474.003906 32.402344 474.339844 C 32.738281 474.671875 33.09375 474.984375 33.464844 475.277344 C 33.839844 475.570312 34.226562 475.84375 34.628906 476.097656 C 35.03125 476.347656 35.445312 476.574219 35.875 476.78125 L 94.199219 503.8125 C 91.921875 508.261719 90.066406 512.882812 88.632812 517.675781 C 87.203125 522.46875 86.21875 527.351562 85.683594 532.324219 C 85.148438 537.296875 85.070312 542.277344 85.449219 547.261719 C 85.832031 552.25 86.660156 557.160156 87.941406 561.996094 C 89.4375 566.265625 91.347656 570.34375 93.671875 574.226562 C 95.992188 578.109375 98.683594 581.722656 101.742188 585.058594 C 104.796875 588.398438 108.15625 591.394531 111.824219 594.050781 C 115.488281 596.703125 119.382812 598.964844 123.503906 600.832031 L 117.101562 612.78125 C 116.597656 613.753906 116.117188 614.738281 115.671875 615.738281 C 115.222656 616.742188 114.808594 617.753906 114.421875 618.78125 C 114.035156 619.808594 113.679688 620.84375 113.355469 621.890625 C 113.03125 622.9375 112.742188 623.996094 112.480469 625.0625 C 112.222656 626.125 111.992188 627.199219 111.796875 628.277344 C 111.605469 629.355469 111.441406 630.441406 111.3125 631.53125 C 111.183594 632.617188 111.085938 633.710938 111.023438 634.804688 C 110.960938 635.898438 110.929688 636.996094 110.929688 638.089844 C 110.933594 639.1875 110.96875 640.285156 111.039062 641.378906 C 111.109375 642.472656 111.210938 643.5625 111.34375 644.652344 C 111.480469 645.738281 111.648438 646.824219 111.847656 647.902344 C 112.046875 648.980469 112.28125 650.050781 112.542969 651.113281 C 112.808594 652.179688 113.105469 653.234375 113.433594 654.277344 C 113.765625 655.324219 114.125 656.359375 114.515625 657.386719 C 114.90625 658.410156 115.328125 659.421875 115.78125 660.417969 C 116.234375 661.417969 116.714844 662.402344 117.226562 663.371094 C 117.738281 664.34375 118.28125 665.296875 118.847656 666.234375 C 119.417969 667.167969 120.015625 668.089844 120.640625 668.988281 C 121.265625 669.890625 121.917969 670.773438 122.59375 671.632812 C 123.273438 672.496094 123.976562 673.335938 124.707031 674.152344 C 125.433594 674.972656 126.1875 675.769531 126.964844 676.542969 C 127.742188 677.316406 128.542969 678.066406 129.363281 678.792969 C 130.1875 679.515625 131.03125 680.214844 131.894531 680.890625 C 132.761719 681.566406 133.644531 682.210938 134.546875 682.832031 C 135.453125 683.453125 136.375 684.046875 137.3125 684.613281 C 138.253906 685.175781 139.207031 685.714844 140.179688 686.222656 C 141.152344 686.730469 142.140625 687.207031 143.140625 687.652344 C 144.140625 688.101562 145.15625 688.519531 146.179688 688.90625 C 147.207031 689.292969 148.242188 689.648438 149.292969 689.972656 C 150.339844 690.296875 151.394531 690.585938 152.460938 690.847656 C 153.527344 691.109375 154.597656 691.335938 155.675781 691.53125 C 156.753906 691.726562 157.839844 691.886719 158.929688 692.019531 L 256.089844 702.546875 C 257.144531 702.667969 258.183594 702.878906 259.207031 703.175781 C 260.226562 703.472656 261.21875 703.855469 262.175781 704.316406 C 263.132812 704.777344 264.046875 705.316406 264.917969 705.929688 C 265.785156 706.542969 266.597656 707.222656 267.351562 707.972656 C 268.109375 708.722656 268.796875 709.527344 269.417969 710.390625 C 270.039062 711.253906 270.582031 712.164062 271.054688 713.117188 C 271.523438 714.074219 271.910156 715.058594 272.21875 716.078125 C 272.523438 717.097656 272.742188 718.132812 272.875 719.1875 C 276.773438 737.753906 268.363281 772.523438 288.097656 788.042969 C 290.339844 790.066406 292.777344 791.820312 295.402344 793.3125 C 298.03125 794.800781 300.789062 795.988281 303.675781 796.871094 C 306.566406 797.757812 309.515625 798.320312 312.523438 798.558594 C 315.535156 798.792969 318.535156 798.703125 321.527344 798.285156 L 626.386719 755.605469 C 627.742188 755.40625 629.082031 755.136719 630.410156 754.800781 C 631.738281 754.464844 633.046875 754.066406 634.335938 753.601562 C 635.621094 753.136719 636.886719 752.609375 638.121094 752.019531 C 639.355469 751.429688 640.5625 750.78125 641.734375 750.074219 C 642.90625 749.363281 644.039062 748.597656 645.132812 747.777344 C 646.230469 746.957031 647.285156 746.085938 648.292969 745.160156 C 649.304688 744.234375 650.265625 743.261719 651.179688 742.242188 C 652.09375 741.222656 652.953125 740.160156 653.761719 739.054688 C 654.570312 737.949219 655.320312 736.804688 656.015625 735.625 C 656.710938 734.445312 657.347656 733.234375 657.921875 731.992188 C 658.5 730.75 659.011719 729.480469 659.460938 728.1875 C 659.910156 726.894531 660.296875 725.582031 660.617188 724.25 C 660.9375 722.921875 661.191406 721.574219 661.378906 720.21875 C 661.566406 718.863281 661.683594 717.5 661.738281 716.132812 C 661.789062 714.761719 661.773438 713.394531 661.691406 712.027344 C 661.609375 710.664062 661.457031 709.300781 661.238281 707.949219 C 653.773438 659.566406 651.023438 610.914062 652.988281 561.996094 C 653.039062 560.386719 653.34375 558.824219 653.902344 557.316406 C 654.460938 555.808594 655.25 554.425781 656.261719 553.175781 C 684.792969 507.769531 709.453125 460.351562 730.234375 410.914062 C 735.636719 399.054688 739.570312 386.726562 742.042969 373.929688 C 744.511719 358.085938 745.890625 342.148438 746.175781 326.117188 C 746.464844 310.085938 745.652344 294.109375 743.75 278.1875 Z M 650.570312 343.914062 C 650.570312 344.707031 650.503906 345.496094 650.375 346.277344 C 650.242188 347.0625 650.042969 347.828125 649.785156 348.578125 C 649.523438 349.328125 649.199219 350.050781 648.816406 350.746094 C 648.433594 351.441406 647.996094 352.101562 647.503906 352.722656 C 647.007812 353.347656 646.464844 353.921875 645.875 354.453125 C 645.285156 354.984375 644.652344 355.460938 643.980469 355.886719 C 643.3125 356.3125 642.609375 356.675781 641.875 356.984375 C 641.144531 357.289062 640.390625 357.53125 639.617188 357.710938 L 605.902344 365.820312 C 602.757812 375.472656 598.867188 384.8125 594.238281 393.84375 L 612.445312 423.292969 C 612.859375 423.96875 613.210938 424.675781 613.507812 425.410156 C 613.800781 426.144531 614.035156 426.898438 614.203125 427.671875 C 614.375 428.445312 614.480469 429.226562 614.519531 430.015625 C 614.5625 430.808594 614.535156 431.597656 614.449219 432.382812 C 614.359375 433.167969 614.203125 433.945312 613.988281 434.703125 C 613.769531 435.464844 613.492188 436.203125 613.152344 436.917969 C 612.8125 437.632812 612.414062 438.316406 611.960938 438.96875 C 611.511719 439.617188 611.007812 440.226562 610.453125 440.792969 L 561.515625 489.726562 C 560.957031 490.292969 560.355469 490.808594 559.710938 491.273438 C 559.066406 491.738281 558.386719 492.144531 557.671875 492.496094 C 556.953125 492.84375 556.214844 493.128906 555.453125 493.351562 C 554.6875 493.574219 553.910156 493.730469 553.121094 493.820312 C 552.328125 493.910156 551.539062 493.933594 550.742188 493.886719 C 549.949219 493.84375 549.164062 493.730469 548.390625 493.550781 C 547.613281 493.371094 546.859375 493.128906 546.125 492.820312 C 545.390625 492.511719 544.691406 492.144531 544.019531 491.71875 L 514.570312 473.511719 C 505.5 478.167969 496.113281 482.054688 486.40625 485.175781 L 478.4375 518.890625 C 478.253906 519.660156 478.007812 520.414062 477.695312 521.140625 C 477.386719 521.871094 477.019531 522.570312 476.59375 523.238281 C 476.167969 523.910156 475.6875 524.539062 475.15625 525.125 C 474.625 525.714844 474.050781 526.253906 473.429688 526.75 C 472.808594 527.242188 472.152344 527.679688 471.457031 528.0625 C 470.761719 528.445312 470.042969 528.769531 469.292969 529.035156 C 468.546875 529.296875 467.78125 529.496094 467 529.632812 C 466.21875 529.769531 465.433594 529.839844 464.640625 529.84375 L 395.503906 529.84375 C 394.707031 529.84375 393.917969 529.777344 393.136719 529.644531 C 392.351562 529.515625 391.585938 529.316406 390.835938 529.054688 C 390.085938 528.792969 389.363281 528.472656 388.667969 528.089844 C 387.972656 527.707031 387.3125 527.269531 386.691406 526.773438 C 386.070312 526.28125 385.492188 525.738281 384.960938 525.148438 C 384.429688 524.558594 383.953125 523.925781 383.527344 523.253906 C 383.105469 522.585938 382.738281 521.882812 382.433594 521.148438 C 382.125 520.417969 381.882812 519.664062 381.703125 518.890625 L 373.59375 485.175781 C 363.945312 482.03125 354.601562 478.140625 345.570312 473.511719 L 316.121094 491.71875 C 315.453125 492.148438 314.75 492.515625 314.015625 492.824219 C 313.28125 493.132812 312.527344 493.375 311.753906 493.554688 C 310.976562 493.734375 310.191406 493.847656 309.398438 493.894531 C 308.601562 493.9375 307.8125 493.914062 307.019531 493.824219 C 306.230469 493.734375 305.453125 493.578125 304.6875 493.355469 C 303.925781 493.132812 303.183594 492.847656 302.46875 492.5 C 301.753906 492.148438 301.074219 491.742188 300.429688 491.277344 C 299.78125 490.8125 299.179688 490.296875 298.625 489.726562 L 249.6875 440.792969 C 249.117188 440.234375 248.601562 439.632812 248.136719 438.988281 C 247.671875 438.339844 247.265625 437.660156 246.914062 436.945312 C 246.566406 436.230469 246.28125 435.492188 246.058594 434.726562 C 245.835938 433.964844 245.679688 433.1875 245.589844 432.394531 C 245.5 431.605469 245.476562 430.8125 245.519531 430.015625 C 245.566406 429.222656 245.679688 428.4375 245.859375 427.664062 C 246.039062 426.886719 246.28125 426.132812 246.589844 425.398438 C 246.898438 424.664062 247.265625 423.964844 247.695312 423.292969 L 265.90625 393.84375 C 261.210938 384.839844 257.324219 375.496094 254.238281 365.820312 L 220.523438 357.710938 C 219.75 357.53125 218.996094 357.289062 218.265625 356.984375 C 217.53125 356.675781 216.832031 356.3125 216.160156 355.886719 C 215.488281 355.460938 214.855469 354.984375 214.265625 354.453125 C 213.675781 353.921875 213.132812 353.347656 212.640625 352.722656 C 212.144531 352.101562 211.707031 351.441406 211.324219 350.746094 C 210.941406 350.050781 210.617188 349.328125 210.359375 348.578125 C 210.097656 347.828125 209.898438 347.0625 209.769531 346.277344 C 209.636719 345.496094 209.570312 344.707031 209.570312 343.914062 L 209.570312 274.777344 C 209.574219 273.984375 209.644531 273.195312 209.78125 272.414062 C 209.917969 271.632812 210.117188 270.867188 210.378906 270.121094 C 210.644531 269.371094 210.96875 268.652344 211.351562 267.957031 C 211.734375 267.265625 212.171875 266.605469 212.664062 265.984375 C 213.160156 265.363281 213.699219 264.789062 214.289062 264.257812 C 214.878906 263.726562 215.507812 263.246094 216.175781 262.820312 C 216.84375 262.394531 217.542969 262.027344 218.273438 261.71875 C 219.003906 261.410156 219.753906 261.160156 220.523438 260.976562 L 254.238281 253.011719 C 257.296875 243.277344 261.183594 233.886719 265.90625 224.84375 L 247.695312 195.394531 C 247.269531 194.722656 246.902344 194.023438 246.59375 193.289062 C 246.289062 192.554688 246.046875 191.800781 245.867188 191.023438 C 245.6875 190.25 245.578125 189.464844 245.53125 188.671875 C 245.488281 187.878906 245.511719 187.085938 245.601562 186.296875 C 245.691406 185.503906 245.847656 184.726562 246.070312 183.964844 C 246.289062 183.199219 246.574219 182.460938 246.925781 181.746094 C 247.273438 181.03125 247.679688 180.351562 248.140625 179.703125 C 248.605469 179.058594 249.121094 178.457031 249.6875 177.898438 L 298.625 128.960938 C 299.1875 128.398438 299.789062 127.890625 300.4375 127.429688 C 301.085938 126.972656 301.765625 126.570312 302.484375 126.226562 C 303.199219 125.882812 303.9375 125.597656 304.699219 125.378906 C 305.460938 125.160156 306.238281 125.003906 307.027344 124.914062 C 307.816406 124.824219 308.605469 124.800781 309.398438 124.84375 C 310.191406 124.886719 310.972656 124.996094 311.746094 125.171875 C 312.523438 125.347656 313.277344 125.585938 314.011719 125.886719 C 314.746094 126.1875 315.449219 126.546875 316.121094 126.96875 L 345.570312 145.179688 C 354.601562 140.546875 363.945312 136.65625 373.59375 133.511719 L 381.703125 99.796875 C 381.882812 99.023438 382.125 98.269531 382.433594 97.539062 C 382.738281 96.804688 383.105469 96.105469 383.527344 95.433594 C 383.953125 94.761719 384.429688 94.128906 384.960938 93.539062 C 385.492188 92.949219 386.070312 92.40625 386.691406 91.914062 C 387.3125 91.417969 387.972656 90.980469 388.667969 90.597656 C 389.363281 90.214844 390.085938 89.894531 390.835938 89.632812 C 391.585938 89.371094 392.351562 89.171875 393.136719 89.042969 C 393.917969 88.910156 394.707031 88.84375 395.503906 88.84375 L 464.640625 88.84375 C 465.433594 88.847656 466.21875 88.917969 467 89.054688 C 467.78125 89.191406 468.546875 89.390625 469.292969 89.652344 C 470.042969 89.917969 470.765625 90.242188 471.457031 90.625 C 472.152344 91.007812 472.808594 91.445312 473.429688 91.9375 C 474.050781 92.433594 474.628906 92.972656 475.160156 93.5625 C 475.6875 94.152344 476.167969 94.78125 476.59375 95.449219 C 477.019531 96.117188 477.386719 96.816406 477.699219 97.546875 C 478.007812 98.277344 478.253906 99.027344 478.4375 99.796875 L 486.40625 133.511719 C 496.113281 136.632812 505.503906 140.519531 514.574219 145.179688 L 544.019531 126.96875 C 544.695312 126.550781 545.398438 126.191406 546.132812 125.890625 C 546.867188 125.589844 547.621094 125.351562 548.394531 125.175781 C 549.167969 125.003906 549.953125 124.894531 550.746094 124.851562 C 551.535156 124.808594 552.328125 124.832031 553.117188 124.921875 C 553.902344 125.011719 554.679688 125.164062 555.441406 125.386719 C 556.203125 125.605469 556.941406 125.886719 557.660156 126.230469 C 558.375 126.574219 559.054688 126.976562 559.703125 127.433594 C 560.351562 127.890625 560.957031 128.402344 561.519531 128.960938 L 610.457031 177.898438 C 611.007812 178.464844 611.507812 179.074219 611.960938 179.726562 C 612.410156 180.375 612.804688 181.058594 613.144531 181.773438 C 613.480469 182.488281 613.761719 183.226562 613.976562 183.988281 C 614.195312 184.746094 614.347656 185.519531 614.4375 186.308594 C 614.527344 187.09375 614.550781 187.882812 614.511719 188.671875 C 614.46875 189.460938 614.363281 190.242188 614.195312 191.015625 C 614.027344 191.789062 613.796875 192.542969 613.5 193.277344 C 613.207031 194.011719 612.855469 194.71875 612.449219 195.394531 L 594.238281 224.84375 C 598.894531 233.914062 602.785156 243.304688 605.902344 253.011719 L 639.617188 260.976562 C 640.390625 261.164062 641.140625 261.410156 641.871094 261.71875 C 642.601562 262.027344 643.300781 262.394531 643.96875 262.824219 C 644.636719 263.25 645.265625 263.726562 645.855469 264.257812 C 646.441406 264.789062 646.984375 265.363281 647.476562 265.984375 C 647.96875 266.605469 648.410156 267.265625 648.792969 267.957031 C 649.175781 268.652344 649.5 269.375 649.761719 270.121094 C 650.027344 270.871094 650.226562 271.632812 650.359375 272.414062 C 650.496094 273.195312 650.566406 273.984375 650.574219 274.777344 Z M 650.570312 343.914062 " fill-opacity="1" fill-rule="nonzero"/></g><path fill="#2f2e2c" d="M 580.863281 268.65625 C 577.371094 255.609375 572.25 243.230469 565.5 231.527344 C 564.859375 230.421875 564.378906 229.25 564.058594 228.011719 C 563.738281 226.773438 563.589844 225.511719 563.617188 224.234375 C 563.640625 222.953125 563.835938 221.703125 564.207031 220.476562 C 564.574219 219.253906 565.101562 218.097656 565.785156 217.019531 L 582.285156 189.988281 L 549.425781 157.128906 L 522.394531 173.628906 C 521.316406 174.3125 520.160156 174.839844 518.9375 175.210938 C 517.710938 175.578125 516.460938 175.773438 515.179688 175.800781 C 513.902344 175.824219 512.640625 175.675781 511.402344 175.355469 C 510.164062 175.039062 508.992188 174.554688 507.886719 173.914062 C 496.183594 167.164062 483.808594 162.042969 470.753906 158.550781 C 469.523438 158.195312 468.363281 157.6875 467.265625 157.023438 C 466.167969 156.363281 465.175781 155.570312 464.289062 154.644531 C 463.402344 153.722656 462.652344 152.699219 462.035156 151.574219 C 461.421875 150.453125 460.960938 149.269531 460.65625 148.023438 L 453.402344 117.296875 L 406.742188 117.296875 L 399.484375 148.167969 C 399.164062 149.40625 398.6875 150.582031 398.058594 151.699219 C 397.425781 152.8125 396.660156 153.824219 395.761719 154.738281 C 394.863281 155.648438 393.859375 156.429688 392.753906 157.074219 C 391.648438 157.722656 390.476562 158.214844 389.242188 158.550781 C 376.246094 162.066406 363.917969 167.1875 352.257812 173.914062 C 351.148438 174.554688 349.976562 175.039062 348.738281 175.355469 C 347.5 175.675781 346.238281 175.824219 344.960938 175.800781 C 343.683594 175.773438 342.429688 175.578125 341.203125 175.210938 C 339.980469 174.839844 338.828125 174.3125 337.746094 173.628906 L 310.714844 157.128906 L 277.710938 189.988281 L 294.355469 217.019531 C 295.042969 218.097656 295.566406 219.253906 295.9375 220.476562 C 296.304688 221.703125 296.5 222.953125 296.527344 224.234375 C 296.550781 225.511719 296.402344 226.773438 296.082031 228.011719 C 295.761719 229.25 295.28125 230.421875 294.640625 231.527344 C 287.890625 243.230469 282.769531 255.609375 279.277344 268.65625 C 278.921875 269.890625 278.414062 271.050781 277.75 272.148438 C 277.089844 273.246094 276.296875 274.238281 275.371094 275.125 C 274.445312 276.011719 273.421875 276.761719 272.300781 277.378906 C 271.179688 277.996094 269.996094 278.457031 268.75 278.757812 L 238.023438 286.015625 L 238.023438 332.675781 L 268.75 339.929688 C 270.003906 340.238281 271.195312 340.703125 272.324219 341.328125 C 273.457031 341.953125 274.484375 342.71875 275.40625 343.617188 C 276.332031 344.519531 277.125 345.523438 277.78125 346.636719 C 278.4375 347.746094 278.9375 348.925781 279.277344 350.171875 C 282.796875 363.167969 287.917969 375.496094 294.640625 387.160156 C 295.28125 388.265625 295.761719 389.4375 296.082031 390.675781 C 296.402344 391.917969 296.550781 393.175781 296.527344 394.453125 C 296.5 395.734375 296.304688 396.984375 295.9375 398.210938 C 295.566406 399.4375 295.042969 400.589844 294.355469 401.671875 L 277.710938 428.699219 L 310.714844 461.703125 L 337.746094 445.058594 C 338.832031 444.390625 339.988281 443.878906 341.210938 443.519531 C 342.4375 443.160156 343.6875 442.96875 344.960938 442.941406 C 346.238281 442.917969 347.496094 443.058594 348.730469 443.371094 C 349.96875 443.679688 351.144531 444.148438 352.257812 444.773438 C 363.917969 451.5 376.246094 456.621094 389.242188 460.136719 C 390.488281 460.480469 391.667969 460.976562 392.777344 461.632812 C 393.890625 462.289062 394.898438 463.082031 395.796875 464.007812 C 396.699219 464.933594 397.460938 465.960938 398.085938 467.089844 C 398.710938 468.21875 399.179688 469.410156 399.484375 470.664062 L 406.742188 501.394531 L 453.402344 501.394531 L 460.65625 470.664062 C 460.960938 469.421875 461.421875 468.238281 462.035156 467.113281 C 462.652344 465.992188 463.40625 464.96875 464.292969 464.042969 C 465.179688 463.121094 466.167969 462.324219 467.265625 461.664062 C 468.363281 461 469.527344 460.492188 470.757812 460.136719 C 483.808594 456.648438 496.183594 451.527344 507.886719 444.773438 C 508.996094 444.148438 510.171875 443.679688 511.410156 443.371094 C 512.648438 443.058594 513.902344 442.917969 515.179688 442.941406 C 516.457031 442.96875 517.707031 443.160156 518.929688 443.519531 C 520.152344 443.875 521.308594 444.390625 522.394531 445.058594 L 549.425781 461.703125 L 582.289062 428.699219 L 565.785156 401.671875 C 565.101562 400.589844 564.574219 399.4375 564.207031 398.210938 C 563.835938 396.984375 563.640625 395.734375 563.617188 394.453125 C 563.589844 393.175781 563.738281 391.917969 564.058594 390.679688 C 564.378906 389.4375 564.859375 388.265625 565.5 387.160156 C 572.226562 375.496094 577.347656 363.167969 580.863281 350.171875 C 581.207031 348.925781 581.703125 347.75 582.359375 346.636719 C 583.015625 345.523438 583.808594 344.519531 584.734375 343.617188 C 585.660156 342.71875 586.6875 341.953125 587.816406 341.328125 C 588.945312 340.703125 590.136719 340.238281 591.390625 339.929688 L 622.121094 332.675781 L 622.121094 286.015625 L 591.390625 278.757812 C 590.148438 278.457031 588.964844 277.996094 587.839844 277.378906 C 586.71875 276.761719 585.695312 276.011719 584.769531 275.125 C 583.847656 274.238281 583.050781 273.246094 582.390625 272.148438 C 581.726562 271.050781 581.21875 269.890625 580.863281 268.65625 Z M 430.070312 418.742188 C 428.28125 418.738281 426.492188 418.691406 424.703125 418.601562 C 422.917969 418.511719 421.132812 418.378906 419.351562 418.203125 C 417.570312 418.023438 415.796875 417.804688 414.023438 417.539062 C 412.253906 417.277344 410.492188 416.96875 408.738281 416.617188 C 406.980469 416.265625 405.238281 415.875 403.5 415.4375 C 401.765625 415 400.042969 414.523438 398.328125 414 C 396.617188 413.480469 394.917969 412.917969 393.234375 412.3125 C 391.546875 411.710938 389.878906 411.066406 388.226562 410.378906 C 386.574219 409.691406 384.9375 408.96875 383.320312 408.199219 C 381.703125 407.433594 380.105469 406.628906 378.527344 405.785156 C 376.949219 404.941406 375.390625 404.058594 373.859375 403.136719 C 372.324219 402.21875 370.8125 401.257812 369.324219 400.265625 C 367.835938 399.269531 366.375 398.238281 364.9375 397.171875 C 363.5 396.105469 362.089844 395.003906 360.703125 393.871094 C 359.320312 392.734375 357.96875 391.566406 356.640625 390.363281 C 355.316406 389.160156 354.019531 387.925781 352.753906 386.660156 C 351.488281 385.394531 350.253906 384.101562 349.050781 382.773438 C 347.851562 381.449219 346.679688 380.09375 345.546875 378.710938 C 344.410156 377.328125 343.308594 375.917969 342.242188 374.480469 C 341.175781 373.042969 340.144531 371.578125 339.152344 370.089844 C 338.15625 368.601562 337.199219 367.09375 336.277344 365.558594 C 335.355469 364.023438 334.472656 362.464844 333.628906 360.886719 C 332.785156 359.308594 331.980469 357.710938 331.214844 356.09375 C 330.449219 354.476562 329.722656 352.839844 329.035156 351.1875 C 328.351562 349.535156 327.707031 347.867188 327.101562 346.179688 C 326.496094 344.496094 325.933594 342.796875 325.414062 341.085938 C 324.894531 339.375 324.414062 337.648438 323.976562 335.914062 C 323.542969 334.179688 323.148438 332.433594 322.796875 330.675781 C 322.445312 328.921875 322.140625 327.160156 321.875 325.390625 C 321.609375 323.621094 321.390625 321.84375 321.214844 320.0625 C 321.035156 318.28125 320.902344 316.496094 320.8125 314.710938 C 320.722656 312.921875 320.675781 311.132812 320.675781 309.34375 C 326.582031 164.257812 533.582031 164.300781 539.46875 309.34375 C 539.464844 311.132812 539.417969 312.921875 539.328125 314.710938 C 539.238281 316.5 539.105469 318.28125 538.929688 320.0625 C 538.75 321.84375 538.53125 323.621094 538.265625 325.390625 C 538.003906 327.160156 537.695312 328.921875 537.34375 330.679688 C 536.992188 332.433594 536.597656 334.179688 536.164062 335.914062 C 535.726562 337.648438 535.25 339.375 534.726562 341.085938 C 534.207031 342.800781 533.644531 344.496094 533.039062 346.183594 C 532.4375 347.867188 531.792969 349.535156 531.105469 351.1875 C 530.417969 352.84375 529.695312 354.476562 528.925781 356.09375 C 528.160156 357.710938 527.355469 359.308594 526.511719 360.886719 C 525.667969 362.464844 524.785156 364.023438 523.863281 365.558594 C 522.945312 367.09375 521.984375 368.605469 520.992188 370.089844 C 519.996094 371.578125 518.964844 373.042969 517.898438 374.480469 C 516.832031 375.917969 515.730469 377.328125 514.597656 378.710938 C 513.460938 380.09375 512.292969 381.449219 511.089844 382.773438 C 509.886719 384.101562 508.652344 385.394531 507.386719 386.660156 C 506.121094 387.925781 504.828125 389.160156 503.5 390.363281 C 502.175781 391.566406 500.820312 392.734375 499.4375 393.871094 C 498.054688 395.003906 496.640625 396.105469 495.207031 397.171875 C 493.769531 398.238281 492.304688 399.269531 490.816406 400.265625 C 489.328125 401.257812 487.816406 402.21875 486.285156 403.136719 C 484.75 404.058594 483.191406 404.941406 481.613281 405.785156 C 480.035156 406.628906 478.4375 407.433594 476.820312 408.203125 C 475.203125 408.96875 473.566406 409.691406 471.914062 410.378906 C 470.261719 411.066406 468.59375 411.710938 466.90625 412.3125 C 465.222656 412.917969 463.523438 413.480469 461.8125 414 C 460.101562 414.523438 458.375 415 456.640625 415.4375 C 454.902344 415.875 453.160156 416.265625 451.402344 416.617188 C 449.648438 416.96875 447.886719 417.277344 446.117188 417.539062 C 444.34375 417.804688 442.570312 418.023438 440.789062 418.203125 C 439.007812 418.378906 437.222656 418.511719 435.4375 418.601562 C 433.648438 418.691406 431.859375 418.738281 430.070312 418.742188 Z M 430.070312 418.742188 " fill-opacity="1" fill-rule="nonzero"/><path fill="#2f2e2c" d="M 430.070312 228.398438 C 428.746094 228.398438 427.421875 228.433594 426.097656 228.5 C 424.777344 228.5625 423.457031 228.660156 422.136719 228.792969 C 420.820312 228.921875 419.503906 229.085938 418.195312 229.28125 C 416.886719 229.476562 415.582031 229.703125 414.28125 229.960938 C 412.984375 230.21875 411.691406 230.511719 410.40625 230.832031 C 409.121094 231.15625 407.847656 231.507812 406.578125 231.894531 C 405.3125 232.28125 404.054688 232.695312 402.808594 233.140625 C 401.558594 233.589844 400.324219 234.066406 399.101562 234.574219 C 397.878906 235.078125 396.667969 235.617188 395.46875 236.183594 C 394.273438 236.75 393.089844 237.34375 391.921875 237.96875 C 390.753906 238.59375 389.601562 239.246094 388.464844 239.929688 C 387.332031 240.609375 386.210938 241.320312 385.109375 242.054688 C 384.007812 242.789062 382.925781 243.554688 381.863281 244.34375 C 380.800781 245.132812 379.753906 245.945312 378.730469 246.785156 C 377.707031 247.628906 376.707031 248.492188 375.722656 249.382812 C 374.742188 250.269531 373.785156 251.183594 372.847656 252.121094 C 371.910156 253.058594 370.996094 254.015625 370.109375 254.996094 C 369.21875 255.980469 368.355469 256.980469 367.511719 258.003906 C 366.671875 259.027344 365.859375 260.074219 365.070312 261.136719 C 364.28125 262.199219 363.515625 263.28125 362.78125 264.382812 C 362.046875 265.484375 361.335938 266.605469 360.65625 267.738281 C 359.976562 268.875 359.320312 270.027344 358.695312 271.195312 C 358.074219 272.363281 357.476562 273.546875 356.910156 274.742188 C 356.34375 275.941406 355.808594 277.152344 355.300781 278.375 C 354.792969 279.597656 354.316406 280.832031 353.867188 282.082031 C 353.421875 283.328125 353.007812 284.585938 352.621094 285.851562 C 352.238281 287.121094 351.882812 288.394531 351.5625 289.679688 C 351.238281 290.964844 350.949219 292.257812 350.6875 293.554688 C 350.429688 294.855469 350.203125 296.160156 350.007812 297.46875 C 349.8125 298.777344 349.648438 300.09375 349.519531 301.410156 C 349.390625 302.730469 349.292969 304.050781 349.226562 305.371094 C 349.160156 306.695312 349.125 308.019531 349.125 309.34375 C 352.875 416.484375 507.28125 416.457031 511.015625 309.34375 C 511.015625 308.019531 510.980469 306.695312 510.917969 305.371094 C 510.851562 304.050781 510.753906 302.726562 510.621094 301.410156 C 510.492188 300.09375 510.328125 298.777344 510.132812 297.46875 C 509.9375 296.15625 509.710938 294.855469 509.453125 293.554688 C 509.195312 292.253906 508.902344 290.964844 508.582031 289.679688 C 508.257812 288.394531 507.90625 287.117188 507.519531 285.851562 C 507.136719 284.582031 506.71875 283.328125 506.273438 282.078125 C 505.828125 280.832031 505.347656 279.597656 504.84375 278.375 C 504.335938 277.148438 503.796875 275.941406 503.230469 274.742188 C 502.664062 273.546875 502.070312 272.363281 501.445312 271.195312 C 500.820312 270.027344 500.167969 268.875 499.484375 267.738281 C 498.804688 266.601562 498.097656 265.484375 497.359375 264.382812 C 496.625 263.28125 495.863281 262.199219 495.074219 261.136719 C 494.285156 260.070312 493.46875 259.027344 492.628906 258.003906 C 491.789062 256.980469 490.921875 255.976562 490.035156 254.996094 C 489.144531 254.015625 488.230469 253.054688 487.292969 252.121094 C 486.359375 251.183594 485.398438 250.269531 484.417969 249.378906 C 483.4375 248.492188 482.433594 247.625 481.410156 246.785156 C 480.386719 245.945312 479.339844 245.128906 478.277344 244.339844 C 477.214844 243.550781 476.132812 242.789062 475.03125 242.054688 C 473.929688 241.316406 472.8125 240.609375 471.675781 239.929688 C 470.539062 239.246094 469.386719 238.59375 468.21875 237.96875 C 467.050781 237.34375 465.867188 236.75 464.671875 236.183594 C 463.472656 235.617188 462.261719 235.078125 461.039062 234.570312 C 459.816406 234.066406 458.582031 233.589844 457.335938 233.140625 C 456.085938 232.695312 454.828125 232.277344 453.5625 231.894531 C 452.296875 231.507812 451.019531 231.15625 449.734375 230.832031 C 448.449219 230.511719 447.15625 230.21875 445.859375 229.960938 C 444.558594 229.703125 443.253906 229.476562 441.945312 229.28125 C 440.636719 229.085938 439.320312 228.921875 438.003906 228.792969 C 436.683594 228.660156 435.363281 228.5625 434.042969 228.5 C 432.71875 228.433594 431.394531 228.398438 430.070312 228.398438 Z M 430.070312 228.398438 " fill-opacity="1" fill-rule="nonzero"/></svg>