<svg xmlns="http://www.w3.org/2000/svg" xmlns:xlink="http://www.w3.org/1999/xlink" width="120" zoomAndPan="magnify" viewBox="0 0 90 37.5" height="50" preserveAspectRatio="xMidYMid meet" version="1.0"><defs><clipPath id="bf1a1d8a15"><path d="M 2.441406 1.035156 L 87.558594 1.035156 L 87.558594 37 L 2.441406 37 Z M 2.441406 1.035156 " clip-rule="nonzero"/></clipPath></defs><g clip-path="url(#bf1a1d8a15)"><path fill="#000000" d="M 69.828125 1.257812 C 67.664062 1.375 65.660156 1.890625 63.644531 2.847656 C 63.023438 3.140625 61.367188 4.082031 60.320312 4.734375 C 58.949219 5.585938 57.242188 6.808594 56.15625 7.710938 L 55.75 8.042969 L 56.082031 8.058594 L 56.410156 8.078125 L 57.546875 7.210938 C 59.425781 5.785156 61.21875 4.648438 63.128906 3.679688 C 65.046875 2.703125 65.867188 2.386719 67.328125 2.0625 C 68.636719 1.769531 69.089844 1.722656 70.816406 1.726562 C 72.339844 1.726562 72.46875 1.734375 73.242188 1.878906 C 74.941406 2.195312 76.089844 2.539062 77.335938 3.105469 C 79.214844 3.960938 80.683594 4.980469 82.160156 6.472656 C 83.484375 7.808594 84.378906 9.050781 85.171875 10.652344 C 85.902344 12.128906 86.300781 13.277344 86.59375 14.75 C 86.835938 15.972656 86.871094 16.378906 86.871094 18.019531 C 86.867188 19.359375 86.851562 19.699219 86.746094 20.355469 C 86.066406 24.722656 83.867188 28.410156 80.371094 31.054688 C 78.179688 32.710938 75.402344 33.820312 72.613281 34.148438 C 72.238281 34.191406 71.234375 34.242188 70.378906 34.261719 C 68.929688 34.296875 68.800781 34.289062 68.484375 34.191406 C 67.628906 33.917969 66.984375 33.226562 66.753906 32.332031 C 66.710938 32.160156 66.664062 32.011719 66.65625 32.003906 C 66.644531 31.992188 66.585938 32.164062 66.523438 32.386719 C 66.308594 33.117188 65.777344 33.742188 65.109375 34.050781 C 64.742188 34.222656 64.097656 34.34375 63.558594 34.34375 C 63.164062 34.34375 63.128906 34.355469 63.128906 34.453125 C 63.128906 34.5625 63.164062 34.566406 64.097656 34.566406 C 65.0625 34.566406 65.0625 34.566406 65.335938 34.722656 C 65.925781 35.066406 66.460938 35.839844 66.542969 36.460938 C 66.597656 36.898438 66.652344 36.921875 66.71875 36.542969 C 66.847656 35.800781 67.371094 35.042969 67.992188 34.703125 L 68.273438 34.546875 L 68.820312 34.613281 C 71.070312 34.886719 73.679688 34.621094 75.875 33.902344 C 79.117188 32.835938 81.972656 30.78125 84.007812 28.050781 C 84.710938 27.105469 85.070312 26.523438 85.585938 25.496094 C 86.316406 24.042969 86.789062 22.621094 87.035156 21.152344 C 87.355469 19.214844 87.421875 18.351562 87.339844 17.058594 C 87.238281 15.460938 86.992188 14.132812 86.542969 12.769531 C 84.945312 7.90625 81.289062 4.070312 76.535156 2.28125 C 74.507812 1.519531 72.023438 1.140625 69.828125 1.257812 M 53.210938 7.261719 C 53 8.34375 52.285156 9.117188 51.242188 9.382812 L 50.855469 9.480469 L 51.171875 9.550781 C 51.671875 9.664062 52.117188 9.910156 52.484375 10.289062 C 52.859375 10.671875 53.058594 11.03125 53.191406 11.574219 L 53.285156 11.945312 L 53.320312 11.699219 C 53.484375 10.644531 54.328125 9.769531 55.402344 9.542969 L 55.71875 9.476562 L 55.378906 9.410156 C 54.863281 9.304688 54.476562 9.085938 54.074219 8.679688 C 53.609375 8.207031 53.421875 7.808594 53.296875 7 C 53.289062 6.9375 53.25 7.058594 53.210938 7.261719 M 8.445312 7.460938 C 8.445312 7.542969 8.5 7.570312 8.722656 7.601562 C 9.46875 7.699219 9.808594 8.152344 10.007812 9.300781 C 10.085938 9.742188 10.097656 10.785156 10.117188 17.757812 C 10.140625 26.433594 10.144531 26.410156 9.832031 27.507812 C 9.59375 28.363281 9.132812 29.167969 8.675781 29.527344 C 8.539062 29.636719 8.464844 29.644531 7.683594 29.644531 C 6.867188 29.644531 6.816406 29.636719 6.316406 29.464844 C 5.089844 29.03125 4.144531 28.136719 3.667969 26.957031 C 3.425781 26.355469 3.355469 25.894531 3.386719 25.09375 C 3.40625 24.539062 3.4375 24.34375 3.570312 23.945312 C 3.710938 23.535156 3.71875 23.476562 3.632812 23.558594 C 3.472656 23.699219 3.058594 24.398438 2.910156 24.773438 C 2.480469 25.839844 2.511719 27.195312 2.988281 28.226562 C 3.46875 29.257812 4.164062 29.960938 5.179688 30.4375 C 6.664062 31.132812 8.402344 30.898438 9.738281 29.828125 C 10.261719 29.40625 10.585938 28.964844 11.003906 28.105469 C 11.511719 27.054688 11.660156 26.574219 11.765625 25.636719 L 11.820312 25.15625 L 12.652344 24.019531 C 13.628906 22.683594 14.390625 21.6875 14.414062 21.714844 C 14.421875 21.722656 14.507812 21.964844 14.601562 22.253906 C 15.378906 24.625 17.191406 26.25 19.480469 26.625 C 20.058594 26.71875 21.070312 26.730469 21.675781 26.648438 C 23.617188 26.386719 25.398438 25.105469 26.28125 23.332031 C 26.453125 22.988281 26.484375 22.886719 26.425781 22.851562 C 26.277344 22.753906 26.214844 22.8125 26.007812 23.226562 C 25.335938 24.574219 24.121094 25.472656 22.429688 25.882812 C 21.875 26.019531 20.832031 26.027344 20.230469 25.902344 C 18.355469 25.515625 16.90625 24.105469 16.253906 22.03125 C 16.082031 21.496094 15.925781 20.667969 15.90625 20.203125 L 15.890625 19.9375 L 16.542969 19.28125 C 17.175781 18.644531 17.199219 18.625 17.429688 18.625 C 17.851562 18.625 18.316406 18.785156 19.347656 19.285156 C 20.925781 20.050781 21.746094 20.273438 22.984375 20.273438 C 24.742188 20.273438 25.898438 19.441406 26.304688 17.882812 C 26.449219 17.316406 26.4375 16.414062 26.277344 15.875 C 25.679688 13.882812 23.816406 12.65625 21.148438 12.496094 C 17.8125 12.292969 15.21875 14.261719 14.414062 17.601562 C 14.234375 18.335938 14.15625 19.324219 14.214844 20.109375 C 14.253906 20.648438 14.246094 20.757812 14.171875 20.859375 C 14.125 20.925781 13.785156 21.347656 13.417969 21.804688 C 13.050781 22.257812 12.539062 22.910156 12.285156 23.25 L 11.820312 23.867188 L 11.839844 16.722656 C 11.863281 9.109375 11.855469 9.277344 12.121094 8.507812 C 12.300781 7.996094 12.695312 7.671875 13.234375 7.601562 C 13.457031 7.570312 13.515625 7.542969 13.515625 7.460938 C 13.515625 7.359375 13.417969 7.355469 10.980469 7.355469 C 8.539062 7.355469 8.445312 7.359375 8.445312 7.460938 M 21.769531 9.65625 C 21.675781 9.714844 21.492188 9.894531 21.359375 10.054688 C 20.574219 11 20.410156 11.101562 19.566406 11.144531 C 19.015625 11.175781 18.992188 11.183594 18.976562 11.308594 L 18.957031 11.4375 L 19.957031 11.410156 C 20.839844 11.386719 21.007812 11.367188 21.390625 11.238281 C 22.171875 10.984375 22.625 10.570312 22.640625 10.101562 C 22.648438 9.675781 22.144531 9.417969 21.769531 9.65625 M 62.25 12.546875 C 61.246094 12.695312 60.441406 13 59.636719 13.539062 C 58.246094 14.472656 57.265625 16.050781 56.878906 17.992188 C 56.742188 18.6875 56.738281 20.480469 56.875 21.167969 C 57.097656 22.289062 57.464844 23.214844 58.011719 24.023438 C 58.339844 24.511719 59.140625 25.328125 59.585938 25.628906 C 60.628906 26.335938 61.585938 26.636719 62.945312 26.691406 C 64.078125 26.734375 64.90625 26.589844 65.863281 26.183594 C 67.039062 25.683594 68.191406 24.589844 68.84375 23.355469 C 68.96875 23.117188 69.070312 22.914062 69.070312 22.898438 C 69.070312 22.882812 69 22.84375 68.917969 22.8125 C 68.765625 22.761719 68.761719 22.765625 68.5625 23.179688 C 67.914062 24.546875 66.660156 25.488281 64.964844 25.878906 C 64.496094 25.992188 64.335938 26 63.628906 25.976562 C 62.785156 25.941406 62.359375 25.851562 61.730469 25.574219 C 60.445312 25 59.367188 23.734375 58.847656 22.191406 C 58.5 21.171875 58.335938 19.660156 58.4375 18.519531 C 58.695312 15.742188 59.796875 13.792969 61.503906 13.09375 C 62.335938 12.75 63.449219 12.6875 64.394531 12.929688 C 65.945312 13.328125 67.316406 14.367188 68.117188 15.742188 C 68.230469 15.9375 68.351562 16.089844 68.382812 16.082031 C 68.425781 16.066406 68.445312 15.703125 68.445312 14.9375 L 68.445312 13.816406 L 67.816406 13.503906 C 66.265625 12.726562 63.859375 12.316406 62.25 12.546875 M 74.828125 12.53125 C 74.105469 12.597656 73.140625 12.820312 72.609375 13.042969 C 71.773438 13.398438 71.125 14 70.894531 14.625 C 70.746094 15.03125 70.753906 15.703125 70.910156 16.050781 C 71.175781 16.648438 71.785156 16.988281 72.363281 16.867188 C 72.886719 16.757812 73.304688 16.328125 73.257812 15.945312 C 73.246094 15.828125 73.203125 15.789062 73.0625 15.761719 C 72.664062 15.679688 72.476562 15.320312 72.519531 14.722656 C 72.566406 14.035156 72.976562 13.5 73.722656 13.15625 C 74.300781 12.890625 74.816406 12.785156 75.722656 12.757812 C 76.375 12.738281 76.605469 12.753906 77.050781 12.84375 C 78.371094 13.121094 79.132812 13.789062 79.199219 14.738281 C 79.234375 15.203125 79.121094 15.523438 78.832031 15.785156 C 78.332031 16.242188 77.78125 16.453125 75.644531 17.011719 C 74.78125 17.238281 73.839844 17.507812 73.558594 17.609375 C 71.4375 18.386719 70.292969 19.460938 69.847656 21.097656 C 69.695312 21.660156 69.714844 23.121094 69.878906 23.707031 C 70.277344 25.101562 71.308594 26.144531 72.699219 26.550781 C 73.070312 26.660156 73.253906 26.675781 73.976562 26.675781 C 74.945312 26.671875 75.265625 26.605469 75.957031 26.261719 C 77.363281 25.558594 78.320312 24.09375 78.9375 21.675781 L 79.09375 21.074219 L 79.113281 22.804688 C 79.132812 24.371094 79.148438 24.566406 79.25 24.875 C 79.40625 25.34375 79.601562 25.664062 79.894531 25.925781 C 80.269531 26.257812 80.511719 26.320312 81.457031 26.320312 C 82.230469 26.320312 82.265625 26.316406 82.265625 26.210938 C 82.265625 26.144531 82.230469 26.101562 82.175781 26.101562 C 81.796875 26.101562 81.304688 25.753906 81.097656 25.339844 C 80.867188 24.878906 80.847656 24.617188 80.847656 22.265625 C 80.84375 19.152344 80.773438 18.421875 80.398438 17.835938 C 80.152344 17.449219 79.894531 17.296875 79.429688 17.265625 C 79.136719 17.242188 79.019531 17.257812 78.914062 17.328125 C 78.777344 17.417969 78.722656 17.582031 78.832031 17.582031 C 78.863281 17.582031 78.929688 17.671875 78.976562 17.785156 C 79.046875 17.960938 79.058594 18.15625 79.03125 19.007812 C 78.960938 21.296875 78.414062 23.144531 77.453125 24.371094 C 76.589844 25.464844 75.601562 26 74.4375 26 C 73.246094 26 72.375 25.453125 71.851562 24.375 C 71.515625 23.6875 71.449219 23.351562 71.453125 22.363281 C 71.453125 21.617188 71.46875 21.441406 71.597656 20.960938 C 71.976562 19.527344 72.785156 18.535156 74.113281 17.871094 C 74.988281 17.433594 75.628906 17.238281 77.65625 16.785156 C 79.101562 16.464844 79.558594 16.335938 80 16.113281 C 80.964844 15.628906 81.132812 14.710938 80.40625 13.929688 C 80.03125 13.527344 79.644531 13.28125 78.976562 13.03125 C 77.738281 12.5625 76.359375 12.394531 74.828125 12.53125 M 31.53125 12.605469 C 29.875 12.90625 28.699219 13.773438 28.328125 14.96875 C 28.191406 15.410156 28.175781 16.121094 28.285156 16.671875 C 28.390625 17.191406 28.726562 17.835938 29.089844 18.214844 C 29.835938 19 30.632812 19.382812 33.003906 20.109375 C 33.605469 20.289062 34.269531 20.503906 34.476562 20.585938 C 35.542969 20.988281 36.222656 21.496094 36.527344 22.117188 C 36.839844 22.757812 36.804688 23.671875 36.4375 24.433594 C 36.011719 25.316406 35.027344 26.027344 33.816406 26.328125 C 33.144531 26.496094 31.996094 26.496094 31.386719 26.332031 C 30.367188 26.050781 29.476562 25.472656 28.824219 24.664062 C 28.542969 24.320312 28.238281 23.734375 28.191406 23.453125 C 28.164062 23.292969 28.121094 23.210938 28.054688 23.195312 C 27.964844 23.179688 27.960938 23.261719 27.976562 24.378906 L 27.988281 25.578125 L 28.425781 25.808594 C 30.644531 26.992188 34.617188 26.984375 36.582031 25.792969 C 37.675781 25.128906 38.265625 24.117188 38.269531 22.902344 C 38.273438 22.265625 38.183594 21.820312 37.941406 21.289062 C 37.445312 20.199219 36.339844 19.449219 34.257812 18.789062 C 31.40625 17.878906 30.722656 17.601562 30.179688 17.144531 C 29.597656 16.65625 29.378906 16.246094 29.339844 15.578125 C 29.257812 14.195312 30.359375 13.09375 32.125 12.792969 C 32.351562 12.753906 32.796875 12.742188 33.242188 12.757812 C 33.847656 12.78125 34.070312 12.8125 34.421875 12.925781 C 35.683594 13.34375 36.746094 14.382812 37.265625 15.726562 C 37.347656 15.929688 37.433594 16.097656 37.457031 16.097656 C 37.484375 16.097656 37.503906 15.589844 37.503906 14.96875 L 37.503906 13.84375 L 37.273438 13.671875 C 36.660156 13.214844 35.414062 12.773438 34.28125 12.609375 C 33.578125 12.507812 32.078125 12.503906 31.53125 12.605469 M 43.71875 12.550781 C 43.671875 12.558594 43.453125 12.597656 43.226562 12.636719 C 42.289062 12.789062 41.476562 13.183594 40.882812 13.785156 C 40.246094 14.429688 40.011719 14.988281 40.011719 15.847656 C 40.015625 17.398438 40.808594 18.53125 42.421875 19.28125 C 42.871094 19.488281 43.199219 19.601562 45.359375 20.296875 C 45.980469 20.496094 46.703125 20.769531 46.96875 20.902344 C 48.066406 21.460938 48.53125 22.117188 48.535156 23.105469 C 48.535156 24.628906 47.464844 25.832031 45.683594 26.304688 C 44.945312 26.5 43.847656 26.507812 43.171875 26.324219 C 42.242188 26.066406 41.515625 25.636719 40.894531 24.980469 C 40.382812 24.433594 39.957031 23.683594 39.957031 23.324219 C 39.957031 23.222656 39.925781 23.1875 39.847656 23.1875 C 39.742188 23.1875 39.738281 23.222656 39.738281 24.367188 L 39.738281 25.546875 L 40.078125 25.738281 C 40.796875 26.140625 41.789062 26.453125 42.847656 26.605469 C 43.527344 26.707031 45.425781 26.691406 46.0625 26.578125 C 48.589844 26.140625 49.957031 24.945312 50.078125 23.078125 C 50.132812 22.175781 49.867188 21.292969 49.335938 20.617188 C 49.007812 20.203125 48.40625 19.769531 47.644531 19.402344 C 47.003906 19.09375 46.597656 18.949219 44.378906 18.242188 C 42.878906 17.765625 42.164062 17.398438 41.664062 16.851562 C 41.367188 16.527344 41.230469 16.25 41.148438 15.800781 C 40.910156 14.484375 41.933594 13.261719 43.617188 12.855469 C 44.195312 12.714844 45.285156 12.703125 45.863281 12.832031 C 46.398438 12.949219 47.269531 13.386719 47.683594 13.742188 C 48.289062 14.265625 48.898438 15.167969 49.160156 15.921875 C 49.289062 16.296875 49.335938 16.042969 49.335938 14.941406 L 49.335938 13.847656 L 49.085938 13.675781 C 48.726562 13.425781 48.066406 13.109375 47.558594 12.941406 C 46.695312 12.65625 46.121094 12.570312 44.917969 12.550781 C 44.304688 12.539062 43.765625 12.539062 43.71875 12.550781 M 20.191406 12.804688 C 19.261719 12.878906 18.472656 13.21875 17.820312 13.828125 C 16.757812 14.820312 16.117188 16.363281 15.890625 18.484375 L 15.855469 18.808594 L 16.144531 18.539062 C 16.300781 18.390625 16.496094 18.191406 16.578125 18.097656 C 16.964844 17.65625 17.820312 17.410156 18.566406 17.523438 C 19.097656 17.605469 19.890625 18.015625 20.628906 18.59375 C 21.996094 19.660156 22.597656 20 23.125 20 C 23.480469 20 23.84375 19.851562 24.132812 19.585938 C 24.441406 19.308594 24.632812 18.972656 24.808594 18.40625 C 24.921875 18.046875 24.9375 17.886719 24.929688 17.167969 C 24.925781 16.4375 24.910156 16.289062 24.777344 15.851562 C 24.40625 14.621094 23.703125 13.730469 22.699219 13.234375 C 21.976562 12.875 21.132812 12.730469 20.191406 12.804688 M 51.609375 12.894531 C 51.109375 12.910156 50.96875 12.929688 50.96875 12.988281 C 50.96875 13.0625 51.035156 13.082031 51.472656 13.160156 C 51.984375 13.25 52.320312 13.714844 52.507812 14.582031 C 52.75 15.730469 52.769531 23.363281 52.527344 24.542969 C 52.355469 25.40625 52.046875 25.855469 51.511719 26.015625 C 51.351562 26.0625 51.164062 26.101562 51.097656 26.101562 C 51.007812 26.101562 50.96875 26.132812 50.96875 26.210938 C 50.96875 26.320312 51.007812 26.320312 53.53125 26.320312 C 56 26.320312 56.09375 26.316406 56.09375 26.21875 C 56.09375 26.136719 56.039062 26.105469 55.863281 26.078125 C 54.988281 25.9375 54.679688 25.558594 54.476562 24.371094 C 54.402344 23.949219 54.386719 23.054688 54.367188 18.363281 L 54.34375 12.855469 L 53.296875 12.867188 C 52.722656 12.871094 51.964844 12.886719 51.609375 12.894531 " fill-opacity="1" fill-rule="evenodd"/></g></svg>