<svg xmlns="http://www.w3.org/2000/svg" xmlns:xlink="http://www.w3.org/1999/xlink" width="500" zoomAndPan="magnify" viewBox="0 0 375 374.999991" height="500" preserveAspectRatio="xMidYMid meet" version="1.0"><path fill="#000000" d="M 155.484375 12.894531 C 130.070312 17.488281 107.328125 27.367188 83.796875 44.035156 C 38.566406 76.078125 12 128.300781 12 185.183594 C 12 201.265625 12.164062 202.128906 15.84375 205.585938 L 19.6875 209.199219 L 18.660156 194.222656 C 16.320312 159.992188 26.535156 122.5625 46.683594 91.5 C 57.054688 75.515625 82.277344 51.609375 99.632812 41.308594 C 157.09375 7.214844 225.019531 8.863281 280.429688 45.703125 C 292.5 53.726562 317.953125 77.390625 322.597656 84.90625 C 326.929688 91.921875 326.933594 102.832031 322.597656 111.148438 C 319.664062 116.777344 319.613281 117.269531 322.050781 116.238281 C 330.007812 112.871094 335.613281 111.125 338.640625 111.066406 C 343.609375 110.96875 354.421875 116.457031 359.308594 121.558594 C 361.648438 124.003906 364.109375 126 364.78125 126 C 367.675781 126 365.5625 121.683594 360.023438 116.273438 C 352.171875 108.605469 350.09375 102.339844 352.527344 93.648438 C 353.542969 90.023438 355.300781 86.285156 356.4375 85.34375 C 357.570312 84.402344 358.5 82.714844 358.5 81.589844 C 358.5 80.042969 357.078125 80.289062 352.613281 82.617188 C 346.707031 85.695312 337.609375 86.6875 331.902344 84.878906 C 330.21875 84.34375 327.003906 81.25 324.753906 78.003906 C 318.949219 69.632812 296.386719 48.234375 285.746094 41.011719 C 273.691406 32.828125 254.511719 23.3125 241.160156 18.886719 C 216.78125 10.808594 180.917969 8.300781 155.484375 12.894531 M 180 74.214844 C 180 75.523438 181.324219 76.5 183.097656 76.5 C 188.324219 76.5 191.515625 79.128906 194.425781 85.832031 C 197.023438 91.808594 197.234375 98.066406 197.503906 177 C 197.800781 264.046875 197.292969 273.867188 191.820312 286.582031 C 187.015625 297.75 182.933594 300.742188 172.683594 300.601562 C 144.96875 300.226562 123.910156 272.613281 131.042969 246 C 133.597656 236.476562 132.984375 234.757812 128.914062 240.023438 C 119.558594 252.132812 117.386719 274.222656 124.183594 288.148438 C 135.152344 310.628906 162.222656 320.511719 184.621094 310.214844 C 195.925781 305.019531 201.226562 300.101562 206.800781 289.648438 C 216.019531 272.347656 215.878906 273.871094 216.828125 181.5 C 217.320312 133.792969 218.359375 93.703125 219.210938 89.78125 C 220.847656 82.234375 225.238281 77.058594 230.683594 76.257812 C 232.574219 75.976562 234.261719 75.074219 234.433594 74.25 C 234.632812 73.304688 224.625 72.597656 207.375 72.339844 C 183.683594 71.988281 180 72.238281 180 74.214844 M 358.101562 183.402344 C 359.132812 196.261719 356.128906 220.957031 351.59375 236.839844 C 347.285156 251.945312 337.152344 273.789062 328.746094 286.078125 C 295.023438 335.398438 232.90625 364.683594 175.121094 358.507812 C 153.957031 356.242188 133.9375 350.578125 116.691406 341.96875 C 95.515625 331.398438 85.65625 324.15625 68.101562 306.28125 C 45.945312 283.71875 42.898438 276.101562 50.242188 261.628906 C 52.304688 257.570312 53.992188 254.113281 53.992188 253.953125 C 53.996094 253.789062 51.660156 254.632812 48.796875 255.828125 C 41.925781 258.699219 31.015625 258.585938 25.050781 255.585938 C 22.410156 254.257812 17.796875 250.820312 14.796875 247.949219 C 6.773438 240.265625 6.367188 244.429688 14.242188 253.65625 C 20.359375 260.820312 21 262.304688 21 269.328125 C 21 275.164062 20.054688 278.472656 17.175781 282.71875 C 15.070312 285.816406 13.621094 288.621094 13.953125 288.953125 C 14.28125 289.28125 17.523438 288.207031 21.152344 286.558594 C 33.429688 280.988281 40.925781 282.925781 48.136719 293.539062 C 56.589844 305.96875 82.3125 330.0625 96.46875 338.808594 C 140.132812 365.773438 191.878906 372.789062 240.535156 358.332031 C 281.023438 346.304688 319.539062 315.84375 341.378906 278.578125 C 355.761719 254.039062 364.5 221.90625 364.5 193.566406 C 364.5 181.753906 364.164062 180.207031 360.914062 177.15625 L 357.328125 173.785156 Z M 358.101562 183.402344 " fill-opacity="1" fill-rule="evenodd"/></svg>