<svg xmlns="http://www.w3.org/2000/svg" xmlns:xlink="http://www.w3.org/1999/xlink" width="1080" zoomAndPan="magnify" viewBox="0 0 810 817.92" height="1080" preserveAspectRatio="xMidYMid meet" version="1.0"><defs><clipPath id="ae5f0a4d9c"><path d="M 23 12.484375 L 786 12.484375 L 786 797.65625 L 23 797.65625 Z M 23 12.484375 " clip-rule="nonzero"/></clipPath></defs><g clip-path="url(#ae5f0a4d9c)"><path fill="#2f2e2c" d="M 167.117188 12.492188 C 148.84375 12.492188 133.898438 27.4375 133.898438 45.671875 L 133.898438 159.960938 C 133.898438 178.234375 148.84375 193.140625 167.117188 193.140625 L 192.902344 193.140625 L 192.902344 238.292969 C 192.902344 245.023438 200.726562 248.699219 205.890625 244.433594 L 267.792969 193.140625 L 333.835938 193.140625 L 333.835938 217.320312 C 333.835938 238.683594 351.25 256.171875 372.613281 256.171875 L 504 256.171875 L 561.046875 303.515625 C 544.730469 321.242188 534.675781 344.835938 534.675781 370.777344 C 534.675781 425.59375 579.28125 470.195312 634.097656 470.195312 C 688.914062 470.195312 733.515625 425.59375 733.515625 370.777344 C 733.515625 315.957031 688.914062 271.355469 634.097656 271.355469 C 619.460938 271.355469 605.613281 274.5625 593.089844 280.273438 L 593.089844 256.171875 L 626.347656 256.171875 C 647.710938 256.171875 665.125 238.683594 665.125 217.320312 L 665.125 77.480469 C 665.125 56.117188 647.710938 38.667969 626.347656 38.667969 L 407.316406 38.667969 C 404.070312 23.761719 390.726562 12.492188 374.882812 12.492188 Z M 167.117188 28.378906 L 374.882812 28.378906 C 381.84375 28.378906 386.539062 32.914062 389.320312 38.667969 L 372.613281 38.667969 C 351.25 38.667969 333.835938 56.117188 333.835938 77.480469 L 333.835938 177.253906 L 264.933594 177.253906 C 263.097656 177.253906 261.296875 177.878906 259.847656 179.09375 L 208.789062 221.390625 L 208.789062 185.195312 C 208.789062 180.816406 205.226562 177.253906 200.84375 177.253906 L 167.117188 177.253906 C 157.375 177.253906 149.824219 169.703125 149.824219 159.960938 L 149.824219 45.671875 C 149.824219 35.96875 157.375 28.378906 167.117188 28.378906 Z M 372.613281 54.59375 L 626.347656 54.59375 C 639.144531 54.59375 649.238281 64.648438 649.238281 77.480469 L 649.238281 217.320312 C 649.238281 230.152344 639.144531 240.25 626.347656 240.25 L 585.148438 240.25 C 580.765625 240.25 577.207031 243.808594 577.207031 248.191406 L 577.207031 289.351562 C 575.71875 290.410156 574.269531 291.503906 572.824219 292.601562 L 511.941406 242.085938 C 510.535156 240.914062 508.734375 240.25 506.855469 240.25 L 372.613281 240.25 C 359.816406 240.25 349.722656 230.152344 349.722656 217.320312 L 349.722656 77.480469 C 349.722656 75.875 349.878906 74.3125 350.191406 72.824219 C 352.304688 62.300781 361.421875 54.59375 372.613281 54.59375 Z M 398.945312 136.835938 C 388.183594 136.679688 388.183594 152.917969 398.945312 152.761719 L 600.015625 152.761719 C 610.777344 152.917969 610.777344 136.679688 600.015625 136.835938 Z M 398.945312 181.636719 C 388.183594 181.480469 388.183594 197.71875 398.945312 197.5625 L 524.621094 197.5625 C 535.378906 197.71875 535.378906 181.480469 524.621094 181.636719 Z M 574.898438 181.636719 C 564.136719 181.480469 564.136719 197.71875 574.898438 197.5625 L 600.015625 197.5625 C 610.777344 197.71875 610.777344 181.480469 600.015625 181.636719 Z M 174.902344 271.355469 C 120.085938 271.355469 75.484375 315.957031 75.484375 370.777344 C 75.484375 425.59375 120.085938 470.195312 174.902344 470.195312 C 229.71875 470.195312 274.324219 425.59375 274.324219 370.777344 C 274.324219 315.957031 229.71875 271.355469 174.902344 271.355469 Z M 174.902344 287.238281 C 221.152344 287.238281 258.441406 324.566406 258.441406 370.777344 C 258.441406 416.984375 221.152344 454.273438 174.902344 454.273438 C 128.695312 454.273438 91.40625 416.984375 91.40625 370.777344 C 91.40625 324.566406 128.695312 287.238281 174.902344 287.238281 Z M 634.097656 287.238281 C 680.304688 287.238281 717.59375 324.566406 717.59375 370.777344 C 717.59375 416.984375 680.304688 454.273438 634.097656 454.273438 C 587.847656 454.273438 550.558594 416.984375 550.558594 370.777344 C 550.558594 346.515625 560.890625 324.800781 577.324219 309.542969 C 577.636719 309.347656 577.949219 309.113281 578.183594 308.875 C 581.707031 305.667969 585.460938 302.773438 589.453125 300.230469 C 589.492188 300.191406 589.570312 300.152344 589.648438 300.074219 C 602.519531 291.972656 617.703125 287.238281 634.097656 287.238281 Z M 120.085938 481.386719 C 94.382812 481.660156 71.179688 494.769531 54.238281 514.488281 C 34.910156 537.023438 23.054688 568.289062 23.054688 600.957031 L 23.054688 789.824219 C 23.054688 794.207031 26.613281 797.765625 31.035156 797.765625 L 318.578125 797.765625 C 322.960938 797.765625 326.519531 794.207031 326.519531 789.824219 L 326.519531 600.957031 C 326.519531 535.65625 279.136719 481.972656 219.429688 481.972656 C 219.078125 481.972656 218.726562 482.011719 218.414062 482.050781 L 174.824219 487.882812 L 131.199219 482.050781 C 127.441406 481.542969 123.765625 481.347656 120.085938 481.386719 Z M 579.242188 481.386719 C 553.574219 481.660156 530.371094 494.769531 513.429688 514.488281 C 494.0625 537.023438 482.246094 568.289062 482.246094 600.957031 L 482.246094 789.824219 C 482.246094 794.207031 485.804688 797.765625 490.1875 797.765625 L 777.730469 797.765625 C 782.152344 797.765625 785.710938 794.207031 785.710938 789.824219 L 785.710938 600.957031 C 785.710938 535.65625 738.328125 481.972656 678.621094 481.972656 C 678.269531 481.972656 677.917969 482.011719 677.566406 482.050781 L 633.980469 487.882812 L 590.390625 482.050781 C 586.636719 481.542969 582.917969 481.347656 579.242188 481.386719 Z M 120.203125 497.273438 C 123.140625 497.273438 126.113281 497.429688 129.085938 497.820312 L 173.769531 503.804688 C 174.433594 503.886719 175.179688 503.886719 175.882812 503.804688 L 219.78125 497.898438 C 269.746094 498.132812 310.636719 543.402344 310.636719 600.957031 L 310.636719 781.878906 L 38.976562 781.878906 L 38.976562 600.957031 C 38.976562 572.160156 49.621094 544.265625 66.328125 524.855469 C 80.882812 507.875 99.625 497.429688 120.203125 497.273438 Z M 579.359375 497.273438 C 582.292969 497.273438 585.265625 497.429688 588.277344 497.820312 L 632.921875 503.804688 C 633.625 503.886719 634.332031 503.886719 635.035156 503.804688 L 678.933594 497.898438 C 728.9375 498.09375 769.789062 543.402344 769.789062 600.957031 L 769.789062 781.878906 L 498.128906 781.878906 L 498.128906 600.957031 C 498.128906 572.160156 508.8125 544.265625 525.480469 524.855469 C 540.074219 507.875 558.777344 497.429688 579.359375 497.273438 Z M 579.359375 497.273438 " fill-opacity="1" fill-rule="nonzero"/></g></svg>